/* XPM */
static char *icon_p2[] = {
/* columns rows colors chars-per-pixel */
"32 32 221 2",
"   c #BB500D",
".  c #BF6C21",
"X  c #B46F37",
"o  c #C85D0D",
"O  c #DB5600",
"+  c #D45C00",
"@  c #DF5D0E",
"#  c #E15B00",
"$  c #DD6700",
"%  c #DB6D0A",
"&  c #D06C1F",
"*  c #D57410",
"=  c #DC7313",
"-  c #DD7E1C",
";  c #E66100",
":  c #EF6100",
">  c #E3600C",
",  c #F36700",
"<  c #E87804",
"1  c #E17A09",
"2  c #C87327",
"3  c #C47B2A",
"4  c #C17B33",
"5  c #C0723D",
"6  c #CF7B38",
"7  c #AB7C58",
"8  c #E27D47",
"9  c #DA830F",
"0  c #D98010",
"q  c #DF8A16",
"w  c #E48104",
"e  c #EC8204",
"r  c #E0850B",
"t  c #EB860D",
"y  c #EA8B0A",
"u  c #E4871B",
"i  c #E29113",
"p  c #E69416",
"a  c #ED9210",
"s  c #EA9014",
"d  c #E9911A",
"f  c #E99719",
"g  c #EC9B1D",
"h  c #F89715",
"j  c #F89B12",
"k  c #F5931E",
"l  c #FD9418",
"z  c #F9901E",
"x  c #FF951F",
"c  c #F59B19",
"v  c #F79C18",
"b  c #F09E1F",
"n  c #F89A1E",
"m  c #FA9E1C",
"M  c #F9A31B",
"N  c #D78226",
"B  c #D98223",
"V  c #DF8F27",
"C  c #DC8E29",
"Z  c #D9922F",
"A  c #DB982F",
"S  c #C9823A",
"D  c #CA833B",
"F  c #CD813D",
"G  c #CF893D",
"H  c #CD8A3E",
"J  c #D29734",
"K  c #DC9D31",
"L  c #FF8E27",
"P  c #EE9F27",
"I  c #EA9B2D",
"U  c #FF9027",
"Y  c #FF9923",
"T  c #FF9C26",
"R  c #FF942B",
"E  c #FF952F",
"W  c #FF9F2A",
"Q  c #FF9E2B",
"!  c #EF8531",
"~  c #E09D31",
"^  c #E89830",
"/  c #EBA32F",
"(  c #EFA12F",
")  c #F0A12B",
"_  c #F0A22F",
"`  c #FAA629",
"'  c #FFA42C",
"]  c #FFAC2D",
"[  c #E3A632",
"{  c #E6A934",
"}  c #E9A23B",
"|  c #ECAF39",
" . c #FFAF31",
".. c #ECB03F",
"X. c #FFB237",
"o. c #F0B23B",
"O. c #F8B53F",
"+. c #FFB63C",
"@. c #FFCB2B",
"#. c #FFCB36",
"$. c #FDC73E",
"%. c #BC8251",
"&. c #BD8452",
"*. c #AB8D6B",
"=. c #BF946D",
"-. c #A6947F",
";. c #C58242",
":. c #CF8840",
">. c #CE8C43",
",. c #DD9C4E",
"<. c #DF9854",
"1. c #D5975D",
"2. c #D79F5B",
"3. c #D89C59",
"4. c #DE9D5B",
"5. c #EC874B",
"6. c #DFAD58",
"7. c #E5A647",
"8. c #EAA346",
"9. c #EEAB48",
"0. c #FFA54A",
"q. c #ECB24A",
"w. c #EBB44F",
"e. c #FAB342",
"r. c #FDB140",
"t. c #FABB41",
"y. c #F4B449",
"u. c #FBBE48",
"i. c #FBBE4A",
"p. c #FBBE4C",
"a. c #FBBE4E",
"s. c #E0A357",
"d. c #E3A85D",
"f. c #FFAC53",
"g. c #EDB654",
"h. c #E8B55D",
"j. c #E7BA5F",
"k. c #EDBA5B",
"l. c #EDBB5B",
"z. c #EBBF5B",
"x. c #FBBD51",
"c. c #FFBB5B",
"v. c #D1A16D",
"b. c #FAA766",
"n. c #FFAC61",
"m. c #EBB063",
"M. c #EDB465",
"N. c #FFB663",
"B. c #E6B676",
"V. c #F7C440",
"C. c #FFD643",
"Z. c #FFD24C",
"A. c #FFDD4C",
"S. c #EBC05B",
"D. c #FDC450",
"F. c #FDC556",
"G. c #FFC951",
"H. c #F8C158",
"J. c #FBC359",
"K. c #FEC55C",
"L. c #FFC75F",
"P. c #FFDB56",
"I. c #FFD15E",
"U. c #FFDE5B",
"Y. c #FFE349",
"T. c #FFE453",
"R. c #FFF75E",
"E. c #E9C061",
"W. c #E7C26C",
"Q. c #E8C269",
"!. c #FFC861",
"~. c #FECB62",
"^. c #FECD62",
"/. c #FFC36D",
"(. c #FAC86A",
"). c #FCC86D",
"_. c #FFCB6D",
"`. c #FED062",
"'. c #FFD763",
"]. c #FED364",
"[. c #FFDA69",
"{. c #FFDF6C",
"}. c #E8C371",
"|. c #E7C478",
" X c #E7C579",
".X c #FCC770",
"XX c #FFC87B",
"oX c #FACE79",
"OX c #FDCF78",
"+X c #FDCF7A",
"@X c #FBCC7C",
"#X c #FFD772",
"$X c #FFD076",
"%X c #FDD07E",
"&X c #FFDB7B",
"*X c #FFDD7D",
"=X c #FFDF7E",
"-X c #FFE062",
";X c #FFE165",
":X c #FFF377",
">X c #988284",
",X c #A99B93",
"<X c #AC9A91",
"1X c #9AA4B7",
"2X c #A8A7AD",
"3X c #A7B0B3",
"4X c #A9B3B9",
"5X c #C3AC89",
"6X c #D0B88C",
"7X c #FCD283",
"8X c #FCD487",
"9X c #FFDF8A",
"0X c #FCDA98",
"qX c #FDEA83",
"wX c #FFE69D",
"eX c #FFF291",
"rX c #FFECB0",
"tX c #FFF3C2",
"yX c #FEF4D5",
"uX c #FFFFE8",
"iX c None",
/* pixels */
"iXiXiXiXiXiXiXiXiXiXiXiXiXiXiXiXiXiXiXiXiXiXiXiXiXiXiXiXiXiXiXiX",
"iXiXiXiXiXiXiXiXiXiXiXiXiX9.K.!.K.J.7.=.iXiXiXiXiXiXiXiXiXiXiXiX",
"iXiXiXiXiXiXiXiXiXiXiX3.X.$Xf.R U 0._.+.;.iXiXiXiXiXiXiXiXiXiXiX",
"iXiXiXiXiXiXiXiXiXiXv.] @Xl < G >.% , N. .&.iXiXiXiXiXiXiXiXiXiX",
"iXiXiXiXiXiXiXiXiXiXk /.m C 4XiXiXiXD : c.u iXiXiXiXiXiXiXiXiXiX",
"iXiXiXiXiXiXiXiXiXiXQ r.r 1XiXiXiXiXiX. z T %.iXiXiXiXiXiXiXiXiX",
"iXiXiXiXiXiXiXiXiX4.Y e.M.B.m.d.s.<.2.:.( ' F iXiXiXiXiXiXiXiXiX",
"iXiXiXiXiXiXiXiXiX<.x O.yXuXtXrXwXqX#X&XH.Q 6 iXiXiXiXiXiXiXiXiX",
"iXiXiXiXiXiXiXiXiX1.L D.(.0X8X7X%X+X$X).F.E 5 iXiXiXiXiXiXiXiXiX",
"iXiXiXiXiXiXiXiXiXiX> oXZ.t.u.u.p.p.x.G..X@ 7 iXiXiXiXiXiXiXiXiX",
"iXiXiXiXiXiXiXiXiXiX& 8 qXP.].`.^.!.I.&X5.  3XiXiXiXiXiXiXiXiXiX",
"iXiXiXiXiXiXiXiXiXiXiX; b.eX-X{.[.'.9Xf.O <XiXiXiXiXiXiXiXiXiXiX",
"iXiXiXiXiXiXiXiXiXiXiX5X! XXT.U.;X:X8.O *.iXiXiXiXiXiXiXiXiXiXiX",
"iXiXiXiXiXiXiXiXiXiXiXiXiX} Y.C.A.R.K >XiXiXiXiXiXiXiXiXiXiXiXiX",
"iXiXiXiXiXiXiXiXiXiXiXiXiX6.#.$.V.@.J iXiXiXiXiXiXiXiXiXiXiXiXiX",
"iXiXiXiXiXiXiXiXiXiXiXiXiXk.0 A d * ,XiXiXiXiXiXiXiXiXiXiXiXiXiX",
"iXiXiXiXiXiXiXiXiXiXiXiXiXl.9 Z h N iXiXiXiXiXiXiXiXiXiXiXiXiXiX",
"iXiXiXiXiXiXiXiXiXiXiXiXiXS.p A v B iXiXiXiXiXiXiXiXiXiXiXiXiXiX",
"iXiXiXiXiXiXiXiXiXiXiXiXiXS.p [ M - iXiXiXiXiXiXiXiXiXiXiXiXiXiX",
"iXiXiXiXiXiXiXiXiXiXiXiXiXE.f { j D iXiXiXiXiXiXiXiXiXiXiXiXiXiX",
"iXiXiXiXiXiXiXiXiXiXiXiXiXQ.g | y <XiXiXiXiXiXiXiXiXiXiXiXiXiXiX",
"iXiXiXiXiXiXiXiXiXiXiXiXiX}.( ..v :.iXiXiXiXiXiXiXiXiXiXiXiXiXiX",
"iXiXiXiXiXiXiXiXiXiXiXiXiX|.( q.` 1 iXiXiXiXiXiXiXiXiXiXiXiXiXiX",
"iXiXiXiXiXiXiXiXiXiXiXiXiX|.( g.n X iXiXiXiXiXiXiXiXiXiXiXiXiXiX",
"iXiXiXiXiXiXiXiXiXiXiXiXiXW.M y.Z 2XiXiXiXiXiXiXiXiXiXiXiXiXiXiX",
"iXiXiXiXiXiXiXiXiXiXiXiXiXj.a o.u iXiXiXiXiXiXiXiXiXiXiXiXiXiXiX",
"iXiXiXiXiXiXiXiXiXiXiXiXiXh.t / e 2 iXiXiXiXiXiXiXiXiXiXiXiXiXiX",
"iXiXiXiXiXiXiXiXiXiXiXiXiXw.w ^ 1 o iXiXiXiXiXiXiXiXiXiXiXiXiXiX",
"iXiXiXiXiXiXiXiXiXiXiXiXiX6X+ I $ X iXiXiXiXiXiXiXiXiXiXiXiXiXiX",
"iXiXiXiXiXiXiXiXiXiXiXiXiXiXiXs 3 iXiXiXiXiXiXiXiXiXiXiXiXiXiXiX",
"iXiXiXiXiXiXiXiXiXiXiXiXiXiXiXiXiXiXiXiXiXiXiXiXiXiXiXiXiXiXiXiX",
"iXiXiXiXiXiXiXiXiXiXiXiXiXiXiXiXiXiXiXiXiXiXiXiXiXiXiXiXiXiXiXiX"
};
